{
  "accessors": [
    {
      "bufferView": 2,
      "componentType": 5126,
      "count": 10754,
      "max": [
        0.49721699953079224,
        0.4969128668308258,
        0.42408478260040283
      ],
      "min": [
        -0.4986844062805176,
        -0.49575668573379517,
        -0.42408478260040283
      ],
      "type": "VEC3"
    },
    {
      "bufferView": 2,
      "byteOffset": 129048,
      "componentType": 5126,
      "count": 10754,
      "max": [
        0.9999999403953552,
        0.9999974370002747,
        0.9999823570251465
      ],
      "min": [
        -0.9999837279319763,
        -0.9999977946281433,
        -0.9999823570251465
      ],
      "type": "VEC3"
    },
    {
      "bufferView": 1,
      "componentType": 5126,
      "count": 10754,
      "max": [
        0.5562037825584412,
        0.9998828172683716
      ],
      "min": [
        0.00022412043472286314,
        0.00019431114196777344
      ],
      "type": "VEC2"
    },
    {
      "bufferView": 1,
      "byteOffset": 86032,
      "componentType": 5126,
      "count": 10754,
      "max": [
        0.5562037825584412,
        0.9998828172683716
      ],
      "min": [
        0.00022412043472286314,
        0.00019431114196777344
      ],
      "type": "VEC2"
    },
    {
      "bufferView": 1,
      "byteOffset": 172064,
      "componentType": 5126,
      "count": 10754,
      "max": [
        0.5562037825584412,
        0.9998828172683716
      ],
      "min": [
        0.00022412043472286314,
        0.00019431114196777344
      ],
      "type": "VEC2"
    },
    {
      "bufferView": 1,
      "byteOffset": 258096,
      "componentType": 5126,
      "count": 10754,
      "max": [
        0.5562037825584412,
        0.9998828172683716
      ],
      "min": [
        0.00022412043472286314,
        0.00019431114196777344
      ],
      "type": "VEC2"
    },
    {
      "bufferView": 1,
      "byteOffset": 344128,
      "componentType": 5126,
      "count": 10754,
      "max": [
        0.5562037825584412,
        0.9998828172683716
      ],
      "min": [
        0.00022412043472286314,
        0.00019431114196777344
      ],
      "type": "VEC2"
    },
    {
      "bufferView": 1,
      "byteOffset": 430160,
      "componentType": 5126,
      "count": 10754,
      "max": [
        0.5562037825584412,
        0.9998828172683716
      ],
      "min": [
        0.00022412043472286314,
        0.00019431114196777344
      ],
      "type": "VEC2"
    },
    {
      "bufferView": 1,
      "byteOffset": 516192,
      "componentType": 5126,
      "count": 10754,
      "max": [
        0.5562037825584412,
        0.9998828172683716
      ],
      "min": [
        0.00022412043472286314,
        0.00019431114196777344
      ],
      "type": "VEC2"
    },
    {
      "bufferView": 1,
      "byteOffset": 602224,
      "componentType": 5126,
      "count": 10754,
      "max": [
        0.5562037825584412,
        0.9998828172683716
      ],
      "min": [
        0.00022412043472286314,
        0.00019431114196777344
      ],
      "type": "VEC2"
    },
    {
      "bufferView": 1,
      "byteOffset": 688256,
      "componentType": 5126,
      "count": 10754,
      "max": [
        0.5562037825584412,
        0.9998828172683716
      ],
      "min": [
        0.00022412043472286314,
        0.00019431114196777344
      ],
      "type": "VEC2"
    },
    {
      "bufferView": 0,
      "componentType": 5125,
      "count": 62916,
      "type": "SCALAR"
    }
  ],
  "asset": {
    "extras": {
      "author": "Ovin Pangemanan (https://sketchfab.com/ovinvalentia)",
      "license": "CC-BY-4.0 (http://creativecommons.org/licenses/by/4.0/)",
      "source": "https://sketchfab.com/3d-models/burger-stikes-baptis-83a16f3412ab4c059a5eed5ff76068be",
      "title": "burger stikes baptis"
    },
    "generator": "Sketchfab-10.78.0",
    "version": "2.0"
  },
  "bufferViews": [
    {
      "buffer": 0,
      "byteLength": 251664,
      "name": "floatBufferViews",
      "target": 34963
    },
    {
      "buffer": 0,
      "byteLength": 774288,
      "byteOffset": 251664,
      "byteStride": 8,
      "name": "floatBufferViews",
      "target": 34962
    },
    {
      "buffer": 0,
      "byteLength": 258096,
      "byteOffset": 1025952,
      "byteStride": 12,
      "name": "floatBufferViews",
      "target": 34962
    }
  ],
  "buffers": [
    {
      "byteLength": 1284048,
      "uri": "scene.bin"
    }
  ],
  "extensionsUsed": [
    "KHR_materials_unlit"
  ],
  "images": [
    {
      "uri": "textures/Material_119_baseColor.png"
    }
  ],
  "materials": [
    {
      "doubleSided": true,
      "extensions": {
        "KHR_materials_unlit": {}
      },
      "name": "Material_119",
      "pbrMetallicRoughness": {
        "baseColorTexture": {
          "index": 0
        },
        "metallicFactor": 0.0
      }
    }
  ],
  "meshes": [
    {
      "name": "root_Material_119_0",
      "primitives": [
        {
          "attributes": {
            "NORMAL": 1,
            "POSITION": 0,
            "TEXCOORD_0": 2,
            "TEXCOORD_1": 3,
            "TEXCOORD_2": 4,
            "TEXCOORD_3": 5,
            "TEXCOORD_4": 6,
            "TEXCOORD_5": 7,
            "TEXCOORD_6": 8,
            "TEXCOORD_7": 9,
            "TEXCOORD_8": 10
          },
          "indices": 11,
          "material": 0,
          "mode": 4
        }
      ]
    }
  ],
  "nodes": [
    {
      "children": [
        1
      ],
      "matrix": [
        6.179200172424316,
        -1.7504248813902674e-15,
        -9.936911589059848e-16,
        0.0,
        -9.936911589059844e-16,
        2.365749219944627e-15,
        -6.179200172424316,
        0.0,
        1.7504248813902676e-15,
        6.179200172424316,
        2.365749219944627e-15,
        0.0,
        -1.9351187319216478e-13,
        -3.4694469511869055e-17,
        -3.4529490378076844e-11,
        1.0
      ],
      "name": "Sketchfab_model"
    },
    {
      "children": [
        2
      ],
      "matrix": [
        1.0,
        0.0,
        0.0,
        0.0,
        0.0,
        0.0,
        1.0,
        0.0,
        0.0,
        -1.0,
        0.0,
        0.0,
        0.0,
        0.0,
        0.0,
        1.0
      ],
      "name": "13ce7e48f0594e84b85e65d685a4ca41.fbx"
    },
    {
      "children": [
        3
      ],
      "name": "RootNode"
    },
    {
      "children": [
        4
      ],
      "name": "root"
    },
    {
      "children": [
        5
      ],
      "name": "root"
    },
    {
      "children": [
        6
      ],
      "matrix": [
        -0.5013561844825745,
        6.139842465593147e-17,
        1.8676973301268163e-09,
        0.0,
        5.693136474122988e-17,
        0.4648798704147339,
        5.693136452914402e-17,
        0.0,
        -9.338486650634081e-10,
        3.069921244232921e-17,
        -0.25067809224128723,
        0.0,
        -0.22553512454032898,
        0.05118530988693237,
        0.2000126987695694,
        1.0
      ],
      "name": "Object_5"
    },
    {
      "mesh": 0,
      "name": "root_Material_119_0"
    }
  ],
  "samplers": [
    {
      "magFilter": 9729,
      "minFilter": 9987,
      "wrapS": 10497,
      "wrapT": 10497
    }
  ],
  "scene": 0,
  "scenes": [
    {
      "name": "Sketchfab_Scene",
      "nodes": [
        0
      ]
    }
  ],
  "textures": [
    {
      "sampler": 0,
      "source": 0
    }
  ]
}
