{
  "accessors": [
    {
      "bufferView": 2,
      "componentType": 5126,
      "count": 25338,
      "max": [
        2.0262906551361084,
        1.8370150327682495,
        2.0628156661987305
      ],
      "min": [
        -2.4516711235046387,
        -1.8395224809646606,
        0.0076739788055419922
      ],
      "type": "VEC3"
    },
    {
      "bufferView": 2,
      "byteOffset": 304056,
      "componentType": 5126,
      "count": 25338,
      "max": [
        0.99991226196289062,
        0.99998241662979126,
        0.99995416402816772
      ],
      "min": [
        -0.99967586994171143,
        -0.99952489137649536,
        -0.99998623132705688
      ],
      "type": "VEC3"
    },
    {
      "bufferView": 1,
      "componentType": 5126,
      "count": 25338,
      "max": [
        1.8335288763046265,
        1
      ],
      "min": [
        -0.65539777278900146,
        0
      ],
      "type": "VEC2"
    },
    {
      "bufferView": 1,
      "byteOffset": 202704,
      "componentType": 5126,
      "count": 25338,
      "max": [
        0.98392730951309204,
        0.99949932098388672
      ],
      "min": [
        0.00050000002374872565,
        0.00050000002374872565
      ],
      "type": "VEC2"
    },
    {
      "bufferView": 0,
      "componentType": 5125,
      "count": 111918,
      "max": [
        25337
      ],
      "min": [
        0
      ],
      "type": "SCALAR"
    },
    {
      "bufferView": 2,
      "byteOffset": 608112,
      "componentType": 5126,
      "count": 14988,
      "max": [
        3.4504251480102539,
        2.7763442993164062,
        2.3305268287658691
      ],
      "min": [
        -3.6459140777587891,
        -2.8989429473876953,
        0.0058553656563162804
      ],
      "type": "VEC3"
    },
    {
      "bufferView": 2,
      "byteOffset": 787968,
      "componentType": 5126,
      "count": 14988,
      "max": [
        0.9827849268913269,
        0.99868541955947876,
        0.99997687339782715
      ],
      "min": [
        -0.9941895604133606,
        -0.99989748001098633,
        -0.99993091821670532
      ],
      "type": "VEC3"
    },
    {
      "bufferView": 1,
      "byteOffset": 405408,
      "componentType": 5126,
      "count": 14988,
      "max": [
        0.52252817153930664,
        0.99240988492965698
      ],
      "min": [
        0.0219619981944561,
        0.032835647463798523
      ],
      "type": "VEC2"
    },
    {
      "bufferView": 0,
      "byteOffset": 447672,
      "componentType": 5125,
      "count": 86166,
      "max": [
        14987
      ],
      "min": [
        0
      ],
      "type": "SCALAR"
    },
    {
      "bufferView": 2,
      "byteOffset": 967824,
      "componentType": 5126,
      "count": 25395,
      "max": [
        1.9991316795349121,
        1.8395227193832397,
        2.0628156661987305
      ],
      "min": [
        -1.971545934677124,
        -1.8254251480102539,
        0.0077770976349711418
      ],
      "type": "VEC3"
    },
    {
      "bufferView": 2,
      "byteOffset": 1272564,
      "componentType": 5126,
      "count": 25395,
      "max": [
        0.99984461069107056,
        0.99989289045333862,
        0.99995410442352295
      ],
      "min": [
        -0.99997049570083618,
        -0.99983692169189453,
        -0.99998623132705688
      ],
      "type": "VEC3"
    },
    {
      "bufferView": 1,
      "byteOffset": 525312,
      "componentType": 5126,
      "count": 25395,
      "max": [
        1.8335288763046265,
        1
      ],
      "min": [
        -0.65539777278900146,
        0
      ],
      "type": "VEC2"
    },
    {
      "bufferView": 1,
      "byteOffset": 728472,
      "componentType": 5126,
      "count": 25395,
      "max": [
        0.98372745513916016,
        0.99949997663497925
      ],
      "min": [
        0.00050000002374872565,
        0.00050000002374872565
      ],
      "type": "VEC2"
    },
    {
      "bufferView": 0,
      "byteOffset": 792336,
      "componentType": 5125,
      "count": 112170,
      "max": [
        25394
      ],
      "min": [
        0
      ],
      "type": "SCALAR"
    },
    {
      "bufferView": 2,
      "byteOffset": 1577304,
      "componentType": 5126,
      "count": 14040,
      "max": [
        3.2709689140319824,
        2.9599831104278564,
        2.3989806175231934
      ],
      "min": [
        -3.2139015197753906,
        -2.410146951675415,
        0.14460766315460205
      ],
      "type": "VEC3"
    },
    {
      "bufferView": 2,
      "byteOffset": 1745784,
      "componentType": 5126,
      "count": 14040,
      "max": [
        0.98232638835906982,
        0.99945306777954102,
        0.99991762638092041
      ],
      "min": [
        -0.99948161840438843,
        -0.9999275803565979,
        -0.99994939565658569
      ],
      "type": "VEC3"
    },
    {
      "bufferView": 1,
      "byteOffset": 931632,
      "componentType": 5126,
      "count": 14040,
      "max": [
        0.99140405654907227,
        0.98589533567428589
      ],
      "min": [
        0.31280374526977539,
        0.0058563719503581524
      ],
      "type": "VEC2"
    },
    {
      "bufferView": 0,
      "byteOffset": 1241016,
      "componentType": 5125,
      "count": 81600,
      "max": [
        14039
      ],
      "min": [
        0
      ],
      "type": "SCALAR"
    },
    {
      "bufferView": 2,
      "byteOffset": 1914264,
      "componentType": 5126,
      "count": 900,
      "max": [
        6.8285746574401855,
        4.4919281005859375,
        1.0820081233978271
      ],
      "min": [
        -6.832979679107666,
        -4.493565559387207,
        -0.0097504984587430954
      ],
      "type": "VEC3"
    },
    {
      "bufferView": 2,
      "byteOffset": 1925064,
      "componentType": 5126,
      "count": 900,
      "max": [
        0.96799558401107788,
        0.96801775693893433,
        0.99999994039535522
      ],
      "min": [
        -0.96763169765472412,
        -0.96784794330596924,
        -1
      ],
      "type": "VEC3"
    },
    {
      "bufferView": 1,
      "byteOffset": 1043952,
      "componentType": 5126,
      "count": 900,
      "max": [
        0.99950003623962402,
        0.95055252313613892
      ],
      "min": [
        0.00050000002374872565,
        0.00050000002374872565
      ],
      "type": "VEC2"
    },
    {
      "bufferView": 0,
      "byteOffset": 1567416,
      "componentType": 5125,
      "count": 3660,
      "max": [
        899
      ],
      "min": [
        0
      ],
      "type": "SCALAR"
    },
    {
      "bufferView": 2,
      "byteOffset": 1935864,
      "componentType": 5126,
      "count": 386,
      "max": [
        0.49871659278869629,
        0.55420935153961182,
        2.9754424095153809
      ],
      "min": [
        -0.84996604919433594,
        -0.42065757513046265,
        2.3265130519866943
      ],
      "type": "VEC3"
    },
    {
      "bufferView": 2,
      "byteOffset": 1940496,
      "componentType": 5126,
      "count": 386,
      "max": [
        0.98767423629760742,
        0.97235560417175293,
        0.99325895309448242
      ],
      "min": [
        -0.99331116676330566,
        -0.98526507616043091,
        -0.99505460262298584
      ],
      "type": "VEC3"
    },
    {
      "bufferView": 1,
      "byteOffset": 1051152,
      "componentType": 5126,
      "count": 386,
      "max": [
        0.9417034387588501,
        0.98281699419021606
      ],
      "min": [
        0.00050000002374872565,
        0.00050000002374872565
      ],
      "type": "VEC2"
    },
    {
      "bufferView": 0,
      "byteOffset": 1582056,
      "componentType": 5125,
      "count": 1080,
      "max": [
        385
      ],
      "min": [
        0
      ],
      "type": "SCALAR"
    },
    {
      "bufferView": 2,
      "byteOffset": 1945128,
      "componentType": 5126,
      "count": 388,
      "max": [
        0.65405952930450439,
        0.79617005586624146,
        2.8275060653686523
      ],
      "min": [
        -0.49167978763580322,
        -0.48437625169754028,
        2.2114419937133789
      ],
      "type": "VEC3"
    },
    {
      "bufferView": 2,
      "byteOffset": 1949784,
      "componentType": 5126,
      "count": 388,
      "max": [
        0.99140828847885132,
        0.98864853382110596,
        0.9922407865524292
      ],
      "min": [
        -0.99552279710769653,
        -0.99798792600631714,
        -0.99948924779891968
      ],
      "type": "VEC3"
    },
    {
      "bufferView": 1,
      "byteOffset": 1054240,
      "componentType": 5126,
      "count": 388,
      "max": [
        0.94624727964401245,
        0.99950003623962402
      ],
      "min": [
        0.00050000002374872565,
        0.00050000002374872565
      ],
      "type": "VEC2"
    },
    {
      "bufferView": 0,
      "byteOffset": 1586376,
      "componentType": 5125,
      "count": 1080,
      "max": [
        387
      ],
      "min": [
        0
      ],
      "type": "SCALAR"
    }
  ],
  "asset": {
    "extras": {
      "author": "Nestaeric (https://sketchfab.com/Nestaeric)",
      "license": "CC-BY-4.0 (http://creativecommons.org/licenses/by/4.0/)",
      "source": "https://sketchfab.com/3d-models/toro-sushi-14d73356e0484cc1936680b4b2a87cd5",
      "title": "Toro sushi"
    },
    "generator": "Sketchfab-8.83.0",
    "version": "2.0"
  },
  "bufferViews": [
    {
      "buffer": 0,
      "byteLength": 1590696,
      "byteOffset": 0,
      "name": "floatBufferViews",
      "target": 34963
    },
    {
      "buffer": 0,
      "byteLength": 1057344,
      "byteOffset": 1590696,
      "byteStride": 8,
      "name": "floatBufferViews",
      "target": 34962
    },
    {
      "buffer": 0,
      "byteLength": 1954440,
      "byteOffset": 2648040,
      "byteStride": 12,
      "name": "floatBufferViews",
      "target": 34962
    }
  ],
  "buffers": [
    {
      "byteLength": 4602480,
      "uri": "scene.bin"
    }
  ],
  "extensionsRequired": [
    "KHR_materials_pbrSpecularGlossiness"
  ],
  "extensionsUsed": [
    "KHR_materials_pbrSpecularGlossiness"
  ],
  "images": [
    {
      "uri": "textures/shallot1__0_diffuse.png"
    },
    {
      "uri": "textures/shallot1__0_specularGlossiness.png"
    },
    {
      "uri": "textures/rice_diffuse.png"
    },
    {
      "uri": "textures/rice_specularGlossiness.png"
    },
    {
      "uri": "textures/Standardmaterial_diffuse.png"
    },
    {
      "uri": "textures/Standardmaterial_specularGlossiness.png"
    },
    {
      "uri": "textures/wood_diffuse.png"
    },
    {
      "uri": "textures/wood_specularGlossiness.png"
    }
  ],
  "materials": [
    {
      "doubleSided": true,
      "extensions": {
        "KHR_materials_pbrSpecularGlossiness": {
          "diffuseFactor": [
            1,
            1,
            1,
            1
          ],
          "diffuseTexture": {
            "index": 0,
            "texCoord": 0
          },
          "glossinessFactor": 0.89523421694405569,
          "specularFactor": [
            0.3186904449021753,
            0.3186904449021753,
            0.3186904449021753
          ],
          "specularGlossinessTexture": {
            "index": 1,
            "texCoord": 0
          }
        }
      },
      "name": "shallot1__0"
    },
    {
      "doubleSided": true,
      "extensions": {
        "KHR_materials_pbrSpecularGlossiness": {
          "diffuseFactor": [
            1,
            1,
            1,
            1
          ],
          "diffuseTexture": {
            "index": 2,
            "texCoord": 0
          },
          "glossinessFactor": 1,
          "specularFactor": [
            1,
            1,
            1
          ],
          "specularGlossinessTexture": {
            "index": 3,
            "texCoord": 1
          }
        }
      },
      "name": "rice"
    },
    {
      "doubleSided": true,
      "emissiveFactor": [
        0,
        0,
        0
      ],
      "extensions": {
        "KHR_materials_pbrSpecularGlossiness": {
          "diffuseFactor": [
            1,
            1,
            1,
            1
          ],
          "diffuseTexture": {
            "index": 4,
            "texCoord": 0
          },
          "glossinessFactor": 1,
          "specularFactor": [
            0.18422351459883013,
            0.18422351459883013,
            0.18422351459883013
          ],
          "specularGlossinessTexture": {
            "index": 5,
            "texCoord": 0
          }
        }
      },
      "name": "Standardmaterial"
    },
    {
      "doubleSided": true,
      "extensions": {
        "KHR_materials_pbrSpecularGlossiness": {
          "diffuseFactor": [
            1,
            1,
            1,
            1
          ],
          "diffuseTexture": {
            "index": 6,
            "texCoord": 0
          },
          "glossinessFactor": 1,
          "specularFactor": [
            0.5,
            0.5,
            0.5
          ],
          "specularGlossinessTexture": {
            "index": 7,
            "texCoord": 0
          }
        }
      },
      "name": "wood"
    }
  ],
  "meshes": [
    {
      "name": "rice1_rice_0",
      "primitives": [
        {
          "attributes": {
            "NORMAL": 1,
            "POSITION": 0,
            "TEXCOORD_0": 2,
            "TEXCOORD_1": 3
          },
          "indices": 4,
          "material": 1,
          "mode": 4
        }
      ]
    },
    {
      "name": "toro2_Standardmaterial_0",
      "primitives": [
        {
          "attributes": {
            "NORMAL": 6,
            "POSITION": 5,
            "TEXCOORD_0": 7
          },
          "indices": 8,
          "material": 2,
          "mode": 4
        }
      ]
    },
    {
      "name": "rice2_rice_0",
      "primitives": [
        {
          "attributes": {
            "NORMAL": 10,
            "POSITION": 9,
            "TEXCOORD_0": 11,
            "TEXCOORD_1": 12
          },
          "indices": 13,
          "material": 1,
          "mode": 4
        }
      ]
    },
    {
      "name": "toro1_Standardmaterial_0",
      "primitives": [
        {
          "attributes": {
            "NORMAL": 15,
            "POSITION": 14,
            "TEXCOORD_0": 16
          },
          "indices": 17,
          "material": 2,
          "mode": 4
        }
      ]
    },
    {
      "name": "wood_wood_0",
      "primitives": [
        {
          "attributes": {
            "NORMAL": 19,
            "POSITION": 18,
            "TEXCOORD_0": 20
          },
          "indices": 21,
          "material": 3,
          "mode": 4
        }
      ]
    },
    {
      "name": "shallot1__0",
      "primitives": [
        {
          "attributes": {
            "NORMAL": 23,
            "POSITION": 22,
            "TEXCOORD_0": 24
          },
          "indices": 25,
          "material": 0,
          "mode": 4
        }
      ]
    },
    {
      "name": "shallot2__0",
      "primitives": [
        {
          "attributes": {
            "NORMAL": 27,
            "POSITION": 26,
            "TEXCOORD_0": 28
          },
          "indices": 29,
          "material": 0,
          "mode": 4
        }
      ]
    }
  ],
  "nodes": [
    {
      "children": [
        1
      ],
      "name": "RootNode (gltf orientation matrix)",
      "rotation": [
        -0.70710678118654746,
        -0,
        -0,
        0.70710678118654757
      ]
    },
    {
      "children": [
        2
      ],
      "matrix": [
        1,
        0,
        0,
        0,
        0,
        1,
        0,
        0,
        0,
        0,
        1,
        0,
        -0.0037216667551547289,
        0,
        0,
        1
      ],
      "name": "RootNode (model correction matrix)"
    },
    {
      "children": [
        3
      ],
      "matrix": [
        1,
        0,
        0,
        0,
        0,
        0,
        1,
        0,
        0,
        -1,
        0,
        0,
        0,
        0,
        0,
        1
      ],
      "name": "5ed26093063449c1bfe4479a4d0eca62.fbx"
    },
    {
      "children": [
        4,
        6,
        8,
        10,
        12,
        14,
        16
      ],
      "name": "RootNode"
    },
    {
      "children": [
        5
      ],
      "matrix": [
        1,
        0,
        0,
        0,
        0,
        2.2204460492503131e-16,
        -1,
        0,
        0,
        1,
        2.2204460492503131e-16,
        0,
        2.0536718368530273,
        1.0373688936233521,
        -0.12452961504459381,
        1
      ],
      "name": "rice1"
    },
    {
      "mesh": 0,
      "name": "rice1_rice_0"
    },
    {
      "children": [
        7
      ],
      "matrix": [
        1,
        0,
        0,
        0,
        0,
        2.2204460492503131e-16,
        -1,
        0,
        0,
        1,
        2.2204460492503131e-16,
        0,
        -2.0592074394226074,
        1.0373688936233521,
        0.16568545997142792,
        1
      ],
      "name": "toro2"
    },
    {
      "mesh": 1,
      "name": "toro2_Standardmaterial_0"
    },
    {
      "children": [
        9
      ],
      "matrix": [
        1,
        0,
        0,
        0,
        0,
        2.2204460492503131e-16,
        -1,
        0,
        0,
        1,
        2.2204460492503131e-16,
        0,
        -2.0592074394226074,
        1.0373688936233521,
        0.16568545997142792,
        1
      ],
      "name": "rice2"
    },
    {
      "mesh": 2,
      "name": "rice2_rice_0"
    },
    {
      "children": [
        11
      ],
      "matrix": [
        1,
        0,
        0,
        0,
        0,
        2.2204460492503131e-16,
        -1,
        0,
        0,
        1,
        2.2204460492503131e-16,
        0,
        2.0536718368530273,
        1.0373688936233521,
        -0.12452961504459381,
        1
      ],
      "name": "toro1"
    },
    {
      "mesh": 3,
      "name": "toro1_Standardmaterial_0"
    },
    {
      "children": [
        13
      ],
      "matrix": [
        1,
        0,
        0,
        0,
        0,
        2.2204460492503131e-16,
        -1,
        0,
        0,
        1,
        2.2204460492503131e-16,
        0,
        -0.39999997615814209,
        0,
        0,
        1
      ],
      "name": "wood"
    },
    {
      "mesh": 4,
      "name": "wood_wood_0"
    },
    {
      "children": [
        15
      ],
      "matrix": [
        0.99999999999998468,
        3.9704669402545328e-23,
        -1.7484555314694902e-07,
        0,
        -1.7484555314694902e-07,
        3.3306690738754696e-16,
        -0.99999999999998468,
        0,
        3.9704669402545328e-23,
        1,
        3.3306690738754696e-16,
        0,
        2.0536718368530273,
        1.0373687744140625,
        -0.12452962249517441,
        1
      ],
      "name": "shallot1"
    },
    {
      "mesh": 5,
      "name": "shallot1__0"
    },
    {
      "children": [
        17
      ],
      "matrix": [
        0.99999999999999234,
        8.7422776573475183e-08,
        8.7422776573475183e-08,
        0,
        8.7422784216217043e-08,
        -8.7422776573475858e-08,
        -0.99999999999999245,
        0,
        -8.742276893073266e-08,
        0.99999999999999245,
        -8.7422784122992425e-08,
        0,
        -2.0592074394226074,
        1.0373687744140625,
        0.16568547487258911,
        1
      ],
      "name": "shallot2"
    },
    {
      "mesh": 6,
      "name": "shallot2__0"
    }
  ],
  "samplers": [
    {
      "magFilter": 9729,
      "minFilter": 9987,
      "wrapS": 10497,
      "wrapT": 10497
    }
  ],
  "scene": 0,
  "scenes": [
    {
      "name": "OSG_Scene",
      "nodes": [
        0
      ]
    }
  ],
  "textures": [
    {
      "sampler": 0,
      "source": 0
    },
    {
      "sampler": 0,
      "source": 1
    },
    {
      "sampler": 0,
      "source": 2
    },
    {
      "sampler": 0,
      "source": 3
    },
    {
      "sampler": 0,
      "source": 4
    },
    {
      "sampler": 0,
      "source": 5
    },
    {
      "sampler": 0,
      "source": 6
    },
    {
      "sampler": 0,
      "source": 7
    }
  ]
}

