{
  "accessors": [
    {
      "bufferView": 2,
      "componentType": 5126,
      "count": 8266,
      "max": [
        83.115234375,
        11.857089042663574,
        169.94935607910156
      ],
      "min": [
        -83.1134262084961,
        -15.352421760559082,
        0.0009510000236332417
      ],
      "type": "VEC3"
    },
    {
      "bufferView": 2,
      "byteOffset": 99192,
      "componentType": 5126,
      "count": 8266,
      "max": [
        0.9997815489768982,
        0.9999023675918579,
        0.9998287558555603
      ],
      "min": [
        -0.9998502135276794,
        -0.9999762177467346,
        -0.9999793767929077
      ],
      "type": "VEC3"
    },
    {
      "bufferView": 3,
      "componentType": 5126,
      "count": 8266,
      "max": [
        1.0,
        0.9998055696487427,
        0.9997987151145935,
        1.0
      ],
      "min": [
        -0.9999927878379822,
        -0.9992696046829224,
        -0.9999209642410278,
        -1.0
      ],
      "type": "VEC4"
    },
    {
      "bufferView": 1,
      "componentType": 5126,
      "count": 8266,
      "max": [
        0.9980289936065674,
        0.9991490244865417
      ],
      "min": [
        0.0024949999060481787,
        0.502668023109436
      ],
      "type": "VEC2"
    },
    {
      "bufferView": 0,
      "componentType": 5125,
      "count": 42204,
      "type": "SCALAR"
    },
    {
      "bufferView": 2,
      "byteOffset": 198384,
      "componentType": 5126,
      "count": 3989,
      "max": [
        8.94414234161377,
        8.986427307128906,
        172.24880981445313
      ],
      "min": [
        -8.94361400604248,
        -14.354880332946777,
        151.92779541015625
      ],
      "type": "VEC3"
    },
    {
      "bufferView": 2,
      "byteOffset": 246252,
      "componentType": 5126,
      "count": 3989,
      "max": [
        0.9986796379089355,
        0.999857485294342,
        0.9997647404670715
      ],
      "min": [
        -0.9986796379089355,
        -0.9978836178779602,
        -0.7961671352386475
      ],
      "type": "VEC3"
    },
    {
      "bufferView": 3,
      "byteOffset": 132256,
      "componentType": 5126,
      "count": 3989,
      "max": [
        0.9999323487281799,
        0.9978510141372681,
        0.9855676889419556,
        1.0
      ],
      "min": [
        -0.9998323321342468,
        -0.9999533295631409,
        -0.9936290383338928,
        -1.0
      ],
      "type": "VEC4"
    },
    {
      "bufferView": 1,
      "byteOffset": 66128,
      "componentType": 5126,
      "count": 3989,
      "max": [
        0.7396600246429443,
        0.9999560117721558
      ],
      "min": [
        0.5637840032577515,
        0.750881016254425
      ],
      "type": "VEC2"
    },
    {
      "bufferView": 0,
      "byteOffset": 168816,
      "componentType": 5125,
      "count": 13260,
      "type": "SCALAR"
    }
  ],
  "asset": {
    "extras": {
      "author": "mazmurbryan (https://sketchfab.com/mazmurbryan)",
      "license": "CC-BY-4.0 (http://creativecommons.org/licenses/by/4.0/)",
      "source": "https://sketchfab.com/3d-models/boy-with-mask-covid-19-fd2e32e03f2e4857a3b7e7e1dee86196",
      "title": "BOY WITH MASK (COVID-19)"
    },
    "generator": "Sketchfab-11.36.0",
    "version": "2.0"
  },
  "bufferViews": [
    {
      "buffer": 0,
      "byteLength": 221856,
      "name": "floatBufferViews",
      "target": 34963
    },
    {
      "buffer": 0,
      "byteLength": 98040,
      "byteOffset": 221856,
      "byteStride": 8,
      "name": "floatBufferViews",
      "target": 34962
    },
    {
      "buffer": 0,
      "byteLength": 294120,
      "byteOffset": 319896,
      "byteStride": 12,
      "name": "floatBufferViews",
      "target": 34962
    },
    {
      "buffer": 0,
      "byteLength": 196080,
      "byteOffset": 614016,
      "byteStride": 16,
      "name": "floatBufferViews",
      "target": 34962
    }
  ],
  "buffers": [
    {
      "byteLength": 810096,
      "uri": "scene.bin"
    }
  ],
  "extensionsRequired": [
    "KHR_materials_pbrSpecularGlossiness"
  ],
  "extensionsUsed": [
    "KHR_materials_pbrSpecularGlossiness"
  ],
  "images": [
    {
      "uri": "textures/PackedMaterial0_diffuse.png"
    },
    {
      "uri": "textures/PackedMaterial0_specularGlossiness.png"
    },
    {
      "uri": "textures/PackedMaterial0_normal.png"
    }
  ],
  "materials": [
    {
      "doubleSided": true,
      "extensions": {
        "KHR_materials_pbrSpecularGlossiness": {
          "diffuseFactor": [
            1.0,
            1.0,
            1.0,
            1.0
          ],
          "diffuseTexture": {
            "index": 0
          },
          "glossinessFactor": 0.0,
          "specularFactor": [
            0.05,
            0.05,
            0.05
          ],
          "specularGlossinessTexture": {
            "index": 1
          }
        }
      },
      "name": "PackedMaterial0",
      "normalTexture": {
        "index": 2
      }
    }
  ],
  "meshes": [
    {
      "name": "Object_0",
      "primitives": [
        {
          "attributes": {
            "NORMAL": 1,
            "POSITION": 0,
            "TANGENT": 2,
            "TEXCOORD_0": 3
          },
          "indices": 4,
          "material": 0,
          "mode": 4
        }
      ]
    },
    {
      "name": "Object_1",
      "primitives": [
        {
          "attributes": {
            "NORMAL": 6,
            "POSITION": 5,
            "TANGENT": 7,
            "TEXCOORD_0": 8
          },
          "indices": 9,
          "material": 0,
          "mode": 4
        }
      ]
    }
  ],
  "nodes": [
    {
      "children": [
        1
      ],
      "matrix": [
        1.0,
        0.0,
        0.0,
        0.0,
        0.0,
        2.220446049250313e-16,
        -1.0,
        0.0,
        0.0,
        1.0,
        2.220446049250313e-16,
        0.0,
        0.0,
        0.0,
        0.0,
        1.0
      ],
      "name": "Sketchfab_model"
    },
    {
      "children": [
        2,
        3
      ],
      "name": "BOY RUN.obj.cleaner.materialmerger.gles"
    },
    {
      "mesh": 0,
      "name": "Object_2"
    },
    {
      "mesh": 1,
      "name": "Object_3"
    }
  ],
  "samplers": [
    {
      "magFilter": 9729,
      "minFilter": 9987,
      "wrapS": 10497,
      "wrapT": 10497
    }
  ],
  "scene": 0,
  "scenes": [
    {
      "name": "Sketchfab_Scene",
      "nodes": [
        0
      ]
    }
  ],
  "textures": [
    {
      "sampler": 0,
      "source": 0
    },
    {
      "sampler": 0,
      "source": 1
    },
    {
      "sampler": 0,
      "source": 2
    }
  ]
}
